    <svg
        viewBox="95.291 75.202 745.553 744.389"
        fill="none"
        xmlns="http://www.w3.org/2000/svg"
        >
        <path
            fill="currentColor"
            opacity="1.000000"
            stroke="none"
            d="M 253.256 798.365 C 224.719 789.439 199.855 775.011 177.557 755.662 C 158.043 738.729 142.824 718.599 131.169 695.827 C 120.611 675.198 113.369 653.343 110.538 630.168 C 108.374 612.451 105.744 594.789 103.731 577.057 C 102.593 567.027 102.082 556.912 101.64 546.82 C 100.516 521.119 99.54 495.411 98.604 469.703 C 98.157 457.416 97.677 445.121 97.685 432.831 C 97.693 420.206 97.981 407.566 98.678 394.962 C 99.73 375.949 101.124 356.952 102.597 337.966 C 103.761 322.956 105.11 307.956 106.643 292.979 C 110.215 258.088 117.091 224.1 134.98 193.273 C 142.917 179.597 152.155 166.91 162.814 155.158 C 179.423 136.847 198.913 122.357 220.729 111.116 C 238.494 101.963 257.325 95.216 277.145 92.118 C 295.427 89.261 313.82 87.011 332.226 85.075 C 349.011 83.309 365.863 82.095 382.712 81.062 C 398.609 80.087 414.535 79.548 430.455 79.035 C 445.574 78.548 460.707 77.917 475.824 78.109 C 500.077 78.417 524.334 79.064 548.565 80.132 C 562.432 80.743 576.29 82.135 590.08 83.783 C 605.554 85.631 615.201 95.763 622.331 108.595 C 627.672 118.208 629.528 128.703 629.697 139.733 C 630.197 172.193 639.687 201.884 659.242 227.896 C 681.863 257.986 712.294 276.161 748.953 283.728 C 757.799 285.554 767.064 285.456 776.152 285.98 C 790.338 286.798 803.591 290.078 815.252 298.762 C 826.993 307.505 832.891 319.098 833.608 333.569 C 834.577 353.11 835.655 372.646 836.6 392.189 C 837.04 401.308 837.27 410.437 837.608 419.561 C 837.927 428.186 838.58 436.812 838.525 445.434 C 838.408 463.392 838.078 481.353 837.532 499.303 C 837.148 511.894 836.42 524.481 835.553 537.049 C 834.733 548.935 834.58 561.006 832.245 572.615 C 828.92 589.139 816.954 598.826 801.951 605.029 C 792.45 608.956 782.5 609.886 772.249 610.133 C 742.788 610.845 716.002 619.861 691.912 637.051 C 675.723 648.604 662.056 662.507 651.79 679.458 C 641.297 696.784 633.906 715.419 631.596 735.751 C 630.141 748.559 630.212 761.701 627.277 774.145 C 622.954 792.475 612.669 806.865 593.195 812.179 C 589.246 813.256 585.062 813.685 580.957 813.943 C 568.051 814.754 555.137 815.666 542.214 815.955 C 504.804 816.792 467.389 817.806 429.976 817.824 C 409.27 817.833 388.541 816.304 367.863 814.877 C 350.875 813.706 333.907 811.993 317.003 809.921 C 295.681 807.308 274.183 805.464 253.256 798.365 M 473.306 487.598 C 534.362 471.717 469.786 508.385 464.323 445.485 C 458.288 376.001 522.044 400.453 453.119 412.411 C 387.568 423.783 503.994 375.575 510.831 441.434 C 518.441 514.753 400.697 505.005 473.306 487.598 Z"/>
    </svg>