 <svg
    viewBox="87.897 62.283 746.113 743.248"
    xmlns="http://www.w3.org/2000/svg"
    fill="none"
    >

            <path
                fill="currentColor"
                opacity="1.000000"
                stroke="none"
                d="M 310.779 795.032 C 290.92 791.853 271.306 789.628 252.171 785.289 C 230.822 780.449 211.146 770.906 192.806 758.869 C 176.332 748.056 162.049 734.816 149.178 719.883 C 133.36 701.531 121.528 680.951 113.157 658.314 C 107.046 641.786 103.13 624.718 100.988 607.231 C 99.42 594.437 97.663 581.665 96.194 568.86 C 95.269 560.805 94.487 552.719 94.047 544.624 C 92.903 523.591 91.561 502.555 91.074 481.501 C 90.366 450.886 90.101 420.254 90.132 389.63 C 90.145 376.045 91.117 362.447 92.065 348.883 C 93.104 334.032 94.494 319.202 95.958 304.385 C 97.504 288.753 99.061 273.115 101.069 257.538 C 105.024 226.86 114.826 198.167 130.857 171.62 C 140.815 155.132 152.949 140.43 167.118 127.497 C 184.039 112.051 203.089 99.885 224.192 90.674 C 243.536 82.229 263.71 77.238 284.401 74.231 C 300.264 71.926 316.261 70.418 332.241 69.062 C 351.547 67.424 370.88 65.73 390.235 65.116 C 425.304 64.002 460.396 63.387 495.482 63.142 C 510.893 63.034 526.344 63.951 541.724 65.104 C 563.165 66.711 584.613 68.516 605.954 71.091 C 625.626 73.465 645.457 75.719 664.692 80.257 C 695.823 87.601 723.534 102.308 747.97 123.301 C 771.36 143.395 789.124 167.524 801.635 195.491 C 809.921 214.013 815.782 233.345 818.077 253.666 C 819.784 268.772 822.185 283.8 823.876 298.908 C 824.963 308.612 825.44 318.39 825.985 328.147 C 827.067 347.516 828.368 366.884 828.918 386.271 C 829.62 411.052 829.834 435.851 829.931 460.644 C 829.981 473.434 829.552 486.238 828.927 499.016 C 828.176 514.402 826.807 529.759 826.035 545.145 C 825.17 562.389 818.589 576.248 803.403 585.321 C 793.256 591.384 782.295 594.9 770.432 594.97 C 737.404 595.164 707.14 604.099 680.763 624.217 C 649.623 647.969 630.106 679.092 624.058 718.067 C 622.717 726.708 622.763 735.556 621.976 744.291 C 620.068 765.488 612.997 783.981 592.865 794.308 C 587.31 797.158 580.536 798.227 574.199 798.832 C 561.666 800.03 549.055 800.68 536.464 800.942 C 496.385 801.778 456.3 802.743 416.216 802.815 C 397.01 802.849 377.785 801.204 358.597 799.91 C 344.075 798.931 329.596 797.316 315.103 795.938 C 313.797 795.814 312.524 795.356 310.779 795.032 M 463.387 459.978 C 464.686 459.239 283.48 389.977 284.763 389.213 C 327.83 363.579 623.735 385.651 581.803 413.084 C 74.636 744.898 459.896 387.693 389.743 404.188 C 319.165 420.783 1035.21 128.366 375.008 478.912 C 307.187 514.923 394.417 496.144 463.387 459.978 Z"/>
        </svg>