<svg xmlns="http://www.w3.org/2000/svg" width="500" height="500" viewBox="0 0 500 500" fill="none">
  <path fill-rule="evenodd" clip-rule="evenodd" d="M13.7137 98.3492C0 129.742 0 169.828 0 250C0 330.172 0 370.258 13.7137 401.651C30.2555 439.518 60.4822 469.745 98.3492 486.286C129.742 500 169.828 500 250 500C330.172 500 370.258 500 401.651 486.286C439.518 469.745 469.745 439.518 486.286 401.651C500 370.258 500 330.172 500 250C500 169.828 500 129.742 486.286 98.3492C469.745 60.4822 439.518 30.2555 401.651 13.7137C370.258 0 330.172 0 250 0C169.828 0 129.742 0 98.3492 13.7137C60.4822 30.2555 30.2555 60.4822 13.7137 98.3492Z" fill="currentColor"/>
</svg>